<svg xmlns="http://www.w3.org/2000/svg" xmlns:xlink="http://www.w3.org/1999/xlink" width="24" height="24" viewBox="0 0 24 24">
  <defs>
    <clipPath id="clip-path">
      <rect id="Rectangle_17405" data-name="Rectangle 17405" width="24" height="24" transform="translate(-20051 -18459)" fill="#fff" stroke="#707070" stroke-width="1"/>
    </clipPath>
  </defs>
  <g id="ic_beranda" transform="translate(20051 18459)" clip-path="url(#clip-path)">
    <g id="noun_Home_1191731" transform="translate(-20058.18 -18466.422)">
      <path id="Path_169" data-name="Path 169" d="M28.89,32.566a.884.884,0,0,0-.884.884v5.523a1.291,1.291,0,0,1-1.287,1.291H19.577V35.131a1.052,1.052,0,0,1,1.052-1.052h1.3a1.052,1.052,0,0,1,1.052,1.052v2.653a.884.884,0,0,0,1.769,0V35.131a2.826,2.826,0,0,0-2.821-2.821h-1.3a2.826,2.826,0,0,0-2.821,2.821v5.134H15.84a1.291,1.291,0,0,1-1.291-1.291V33.451a.884.884,0,1,0-1.769,0v5.523a3.064,3.064,0,0,0,3.06,3.06H26.718a3.065,3.065,0,0,0,3.06-3.06V33.451a.884.884,0,0,0-.889-.884Z" transform="translate(-2.008 -12.612)" fill="#a3a8ba"/>
      <path id="Path_170" data-name="Path 170" d="M29.181,18.327l-7.7-7.721a3.1,3.1,0,0,0-4.378,0L9.362,18.327a.884.884,0,0,0,1.247,1.234l7.725-7.7a1.327,1.327,0,0,1,1.879,0l7.721,7.7a.885.885,0,0,0,1.251-1.251Z" transform="translate(0 0)" fill="#a3a8ba"/>
    </g>
  </g>
</svg>
