<svg xmlns="http://www.w3.org/2000/svg" xmlns:xlink="http://www.w3.org/1999/xlink" width="24" height="24" viewBox="0 0 24 24">
  <defs>
    <clipPath id="clip-path">
      <rect id="Rectangle_17408" data-name="Rectangle 17408" width="24" height="24" transform="translate(-19988.5 -18457.5)" fill="#fff" stroke="#707070" stroke-width="1"/>
    </clipPath>
  </defs>
  <g id="ic_profile" transform="translate(19988.5 18457.5)" clip-path="url(#clip-path)">
    <g id="Icon_feather-user-check" data-name="Icon feather-user-check" transform="translate(-19984.5 -18458.5)">
      <path id="Path_129" data-name="Path 129" d="M15.282,29.089a1.048,1.048,0,0,1-1.048-1.048V26.21A2.617,2.617,0,0,0,11.619,23.6H5.21A2.614,2.614,0,0,0,2.6,26.21v1.831a1.048,1.048,0,0,1-2.1,0V26.21A4.71,4.71,0,0,1,5.21,21.5h6.409a4.716,4.716,0,0,1,4.71,4.71v1.831A1.048,1.048,0,0,1,15.282,29.089Z" transform="translate(0 -7.013)" fill="#fff"/>
      <path id="Path_130" data-name="Path 130" d="M10.46,12.92a4.71,4.71,0,1,1,4.71-4.71A4.716,4.716,0,0,1,10.46,12.92Zm0-7.325A2.614,2.614,0,1,0,13.075,8.21,2.617,2.617,0,0,0,10.46,5.6Z" transform="translate(-2.045)" fill="#fff"/>
    </g>
  </g>
</svg>
